{
    "accessors": {
        "accessor_21": {
            "bufferView": "bufferView_29",
            "byteOffset": 0,
            "byteStride": 0,
            "componentType": 5123,
            "count": 36,
            "type": "SCALAR"
        },
        "accessor_23": {
            "bufferView": "bufferView_30",
            "byteOffset": 0,
            "byteStride": 12,
            "componentType": 5126,
            "count": 36,
            "max": [
                0.0254,
                0.0254,
                0.0254
            ],
            "min": [
                -0.0254,
                -0.0254,
                -0.0254
            ],
            "type": "VEC3"
        },
        "accessor_25": {
            "bufferView": "bufferView_30",
            "byteOffset": 432,
            "byteStride": 12,
            "componentType": 5126,
            "count": 36,
            "max": [
                0.57735,
                0.57735,
                0.57735
            ],
            "min": [
                -0.57735,
                -0.57735,
                -0.57735
            ],
            "type": "VEC3"
        },
        "accessor_27": {
            "bufferView": "bufferView_30",
            "byteOffset": 864,
            "byteStride": 8,
            "componentType": 5126,
            "count": 36,
            "max": [
                1,
                1
            ],
            "min": [
                0,
                0
            ],
            "type": "VEC2"
        }
    },
    "animations": {},
    "asset": {
        "generator": "collada2gltf@cf6371beb0bdc18ba603378d5e40c966da53d385",
        "premultipliedAlpha": true,
        "profile": {
            "api": "WebGL",
            "version": "1.0.2"
        },
        "version": "1.0"
    },
    "bufferViews": {
        "bufferView_29": {
            "buffer": "Box",
            "byteLength": 72,
            "byteOffset": 0,
            "target": 34963
        },
        "bufferView_30": {
            "buffer": "Box",
            "byteLength": 1152,
            "byteOffset": 72,
            "target": 34962
        }
    },
    "buffers": {
        "Box": {
            "byteLength": 1224,
            "type": "arraybuffer",
            "uri": "Box.bin"
        }
    },
    "cameras": {
        "Camera-camera": {
            "name": "Camera",
            "perspective": {
                "aspect_ratio": 1.33333,
                "yfov": 0.643167,
                "zfar": 2.54,
                "znear": 0.00254
            },
            "type": "perspective"
        }
    },
    "extensionsUsed": [
        "KHR_materials_common"
    ],
    "materials": {
        "Material-effect": {
            "extensions": {
                "KHR_materials_common": {
                    "doubleSided": false,
                    "jointCount": 0,
                    "technique": "PHONG",
                    "transparent": false,
                    "values": {
                        "ambient": [
                            0,
                            0,
                            0,
                            1
                        ],
                        "diffuse": [
                            0.64,
                            0.64,
                            0.64,
                            1
                        ],
                        "emission": [
                            0,
                            0,
                            0,
                            1
                        ],
                        "shininess": 50,
                        "specular": [
                            0.5,
                            0.5,
                            0.5,
                            1
                        ]
                    }
                }
            },
            "name": "Material"
        }
    },
    "meshes": {
        "Cube-mesh": {
            "name": "Cube",
            "primitives": [
                {
                    "attributes": {
                        "NORMAL": "accessor_25",
                        "POSITION": "accessor_23",
                        "TEXCOORD_0": "accessor_27"
                    },
                    "indices": "accessor_21",
                    "material": "Material-effect",
                    "mode": 4
                }
            ]
        }
    },
    "nodes": {
        "Camera": {
            "camera": "Camera-camera",
            "children": [],
            "matrix": [
                0.685921,
                0.727676,
                0,
                0,
                -0.324014,
                0.305421,
                0.895396,
                0,
                0.651558,
                -0.61417,
                0.445271,
                0,
                0.190021,
                -0.165294,
                0.135729,
                1
            ],
            "name": "Camera"
        },
        "Cube": {
            "children": [],
            "matrix": [
                1,
                0,
                0,
                0,
                0,
                1,
                0,
                0,
                0,
                0,
                1,
                0,
                0,
                0,
                0,
                1
            ],
            "meshes": [
                "Cube-mesh"
            ],
            "name": "Cube"
        },
        "node_2": {
            "children": [
                "Camera",
                "Cube"
            ],
            "matrix": [
                1,
                0,
                0,
                0,
                0,
                0,
                -1,
                0,
                0,
                1,
                0,
                0,
                0,
                0,
                0,
                1
            ],
            "name": "Y_UP_Transform"
        }
    },
    "scene": "defaultScene",
    "scenes": {
        "defaultScene": {
            "nodes": [
                "node_2"
            ]
        }
    },
    "skins": {}
}